<svg width="102" height="10" viewBox="0 0 102 10" fill="none" xmlns="http://www.w3.org/2000/svg">
<path d="M3.59925 9.144C2.90325 9.144 2.28325 8.972 1.73925 8.628C1.19525 8.284 0.76725 7.788 0.45525 7.14C0.15125 6.484 -0.00074999 5.704 -0.00074999 4.8C-0.00074999 3.896 0.15125 3.12 0.45525 2.472C0.76725 1.816 1.19525 1.316 1.73925 0.972C2.28325 0.628 2.90325 0.456 3.59925 0.456C4.29525 0.456 4.91525 0.628 5.45925 0.972C6.00325 1.316 6.42725 1.816 6.73125 2.472C7.04325 3.12 7.19925 3.896 7.19925 4.8C7.19925 5.704 7.04325 6.484 6.73125 7.14C6.42725 7.788 6.00325 8.284 5.45925 8.628C4.91525 8.972 4.29525 9.144 3.59925 9.144ZM3.59925 7.5C4.11125 7.5 4.51125 7.28 4.79925 6.84C5.09525 6.4 5.24325 5.72 5.24325 4.8C5.24325 3.88 5.09525 3.2 4.79925 2.76C4.51125 2.32 4.11125 2.1 3.59925 2.1C3.09525 2.1 2.69525 2.32 2.39925 2.76C2.11125 3.2 1.96725 3.88 1.96725 4.8C1.96725 5.72 2.11125 6.4 2.39925 6.84C2.69525 7.28 3.09525 7.5 3.59925 7.5ZM14.6204 9.06C13.9964 9.06 13.4364 8.924 12.9404 8.652C12.4524 8.38 12.0684 8 11.7884 7.512C11.5084 7.016 11.3684 6.46 11.3684 5.844C11.3684 5.228 11.5084 4.676 11.7884 4.188C12.0684 3.7 12.4524 3.32 12.9404 3.048C13.4364 2.776 13.9964 2.64 14.6204 2.64C15.1644 2.64 15.6484 2.748 16.0724 2.964C16.5044 3.172 16.8444 3.48 17.0924 3.888L16.4564 4.32C16.2484 4.008 15.9844 3.776 15.6644 3.624C15.3444 3.464 14.9964 3.384 14.6204 3.384C14.1644 3.384 13.7524 3.488 13.3844 3.696C13.0244 3.896 12.7404 4.184 12.5324 4.56C12.3324 4.936 12.2324 5.364 12.2324 5.844C12.2324 6.332 12.3324 6.764 12.5324 7.14C12.7404 7.508 13.0244 7.796 13.3844 8.004C13.7524 8.204 14.1644 8.304 14.6204 8.304C14.9964 8.304 15.3444 8.228 15.6644 8.076C15.9844 7.924 16.2484 7.692 16.4564 7.38L17.0924 7.812C16.8444 8.22 16.5044 8.532 16.0724 8.748C15.6404 8.956 15.1564 9.06 14.6204 9.06ZM21.2407 9.06C20.6327 9.06 20.0847 8.924 19.5967 8.652C19.1087 8.372 18.7247 7.988 18.4447 7.5C18.1647 7.012 18.0247 6.46 18.0247 5.844C18.0247 5.228 18.1647 4.676 18.4447 4.188C18.7247 3.7 19.1087 3.32 19.5967 3.048C20.0847 2.776 20.6327 2.64 21.2407 2.64C21.8487 2.64 22.3967 2.776 22.8847 3.048C23.3727 3.32 23.7527 3.7 24.0247 4.188C24.3047 4.676 24.4447 5.228 24.4447 5.844C24.4447 6.46 24.3047 7.012 24.0247 7.5C23.7527 7.988 23.3727 8.372 22.8847 8.652C22.3967 8.924 21.8487 9.06 21.2407 9.06ZM21.2407 8.304C21.6887 8.304 22.0887 8.204 22.4407 8.004C22.8007 7.796 23.0807 7.504 23.2807 7.128C23.4807 6.752 23.5807 6.324 23.5807 5.844C23.5807 5.364 23.4807 4.936 23.2807 4.56C23.0807 4.184 22.8007 3.896 22.4407 3.696C22.0887 3.488 21.6887 3.384 21.2407 3.384C20.7927 3.384 20.3887 3.488 20.0287 3.696C19.6767 3.896 19.3967 4.184 19.1887 4.56C18.9887 4.936 18.8887 5.364 18.8887 5.844C18.8887 6.324 18.9887 6.752 19.1887 7.128C19.3967 7.504 19.6767 7.796 20.0287 8.004C20.3887 8.204 20.7927 8.304 21.2407 8.304ZM26.1841 0.0959995H27.0361V9H26.1841V0.0959995ZM31.9868 9.06C31.3788 9.06 30.8308 8.924 30.3428 8.652C29.8548 8.372 29.4708 7.988 29.1908 7.5C28.9108 7.012 28.7708 6.46 28.7708 5.844C28.7708 5.228 28.9108 4.676 29.1908 4.188C29.4708 3.7 29.8548 3.32 30.3428 3.048C30.8308 2.776 31.3788 2.64 31.9868 2.64C32.5948 2.64 33.1428 2.776 33.6308 3.048C34.1188 3.32 34.4988 3.7 34.7708 4.188C35.0508 4.676 35.1908 5.228 35.1908 5.844C35.1908 6.46 35.0508 7.012 34.7708 7.5C34.4988 7.988 34.1188 8.372 33.6308 8.652C33.1428 8.924 32.5948 9.06 31.9868 9.06ZM31.9868 8.304C32.4348 8.304 32.8348 8.204 33.1868 8.004C33.5468 7.796 33.8268 7.504 34.0268 7.128C34.2268 6.752 34.3268 6.324 34.3268 5.844C34.3268 5.364 34.2268 4.936 34.0268 4.56C33.8268 4.184 33.5468 3.896 33.1868 3.696C32.8348 3.488 32.4348 3.384 31.9868 3.384C31.5388 3.384 31.1348 3.488 30.7748 3.696C30.4228 3.896 30.1428 4.184 29.9348 4.56C29.7348 4.936 29.6348 5.364 29.6348 5.844C29.6348 6.324 29.7348 6.752 29.9348 7.128C30.1428 7.504 30.4228 7.796 30.7748 8.004C31.1348 8.204 31.5388 8.304 31.9868 8.304ZM37.7462 3.924C37.9462 3.5 38.2422 3.18 38.6342 2.964C39.0342 2.748 39.5262 2.64 40.1102 2.64V3.468L39.9062 3.456C39.2422 3.456 38.7222 3.66 38.3462 4.068C37.9702 4.476 37.7822 5.048 37.7822 5.784V9H36.9302V2.688H37.7462V3.924ZM43.3917 9.06C42.8797 9.06 42.3877 8.988 41.9157 8.844C41.4517 8.692 41.0877 8.504 40.8237 8.28L41.2077 7.608C41.4717 7.816 41.8037 7.988 42.2037 8.124C42.6037 8.252 43.0197 8.316 43.4517 8.316C44.0277 8.316 44.4517 8.228 44.7237 8.052C45.0037 7.868 45.1437 7.612 45.1437 7.284C45.1437 7.052 45.0677 6.872 44.9157 6.744C44.7637 6.608 44.5717 6.508 44.3397 6.444C44.1077 6.372 43.7997 6.304 43.4157 6.24C42.9037 6.144 42.4917 6.048 42.1797 5.952C41.8677 5.848 41.5997 5.676 41.3757 5.436C41.1597 5.196 41.0517 4.864 41.0517 4.44C41.0517 3.912 41.2717 3.48 41.7117 3.144C42.1517 2.808 42.7637 2.64 43.5477 2.64C43.9557 2.64 44.3637 2.696 44.7717 2.808C45.1797 2.912 45.5157 3.052 45.7797 3.228L45.4077 3.912C44.8877 3.552 44.2677 3.372 43.5477 3.372C43.0037 3.372 42.5917 3.468 42.3117 3.66C42.0397 3.852 41.9037 4.104 41.9037 4.416C41.9037 4.656 41.9797 4.848 42.1317 4.992C42.2917 5.136 42.4877 5.244 42.7197 5.316C42.9517 5.38 43.2717 5.448 43.6797 5.52C44.1837 5.616 44.5877 5.712 44.8917 5.808C45.1957 5.904 45.4557 6.068 45.6717 6.3C45.8877 6.532 45.9957 6.852 45.9957 7.26C45.9957 7.812 45.7637 8.252 45.2997 8.58C44.8437 8.9 44.2077 9.06 43.3917 9.06ZM52.9194 2.64C53.7434 2.64 54.3754 2.848 54.8154 3.264C55.2554 3.672 55.4754 4.28 55.4754 5.088V9H54.6594V8.016C54.4674 8.344 54.1834 8.6 53.8074 8.784C53.4394 8.968 52.9994 9.06 52.4874 9.06C51.7834 9.06 51.2234 8.892 50.8074 8.556C50.3914 8.22 50.1834 7.776 50.1834 7.224C50.1834 6.688 50.3754 6.256 50.7594 5.928C51.1514 5.6 51.7714 5.436 52.6194 5.436H54.6234V5.052C54.6234 4.508 54.4714 4.096 54.1674 3.816C53.8634 3.528 53.4194 3.384 52.8354 3.384C52.4354 3.384 52.0514 3.452 51.6834 3.588C51.3154 3.716 50.9994 3.896 50.7354 4.128L50.3514 3.492C50.6714 3.22 51.0554 3.012 51.5034 2.868C51.9514 2.716 52.4234 2.64 52.9194 2.64ZM52.6194 8.388C53.0994 8.388 53.5114 8.28 53.8554 8.064C54.1994 7.84 54.4554 7.52 54.6234 7.104V6.072H52.6434C51.5634 6.072 51.0234 6.448 51.0234 7.2C51.0234 7.568 51.1634 7.86 51.4434 8.076C51.7234 8.284 52.1154 8.388 52.6194 8.388ZM62.9764 2.688L60.1684 9H59.2924L56.4964 2.688H57.3844L59.7484 8.064L62.1364 2.688H62.9764ZM66.1968 2.64C67.0208 2.64 67.6528 2.848 68.0928 3.264C68.5328 3.672 68.7528 4.28 68.7528 5.088V9H67.9368V8.016C67.7448 8.344 67.4608 8.6 67.0848 8.784C66.7168 8.968 66.2768 9.06 65.7648 9.06C65.0608 9.06 64.5008 8.892 64.0848 8.556C63.6688 8.22 63.4608 7.776 63.4608 7.224C63.4608 6.688 63.6528 6.256 64.0368 5.928C64.4288 5.6 65.0488 5.436 65.8968 5.436H67.9008V5.052C67.9008 4.508 67.7488 4.096 67.4448 3.816C67.1408 3.528 66.6968 3.384 66.1128 3.384C65.7128 3.384 65.3288 3.452 64.9608 3.588C64.5928 3.716 64.2768 3.896 64.0128 4.128L63.6288 3.492C63.9488 3.22 64.3328 3.012 64.7808 2.868C65.2288 2.716 65.7008 2.64 66.1968 2.64ZM65.8968 8.388C66.3768 8.388 66.7888 8.28 67.1328 8.064C67.4768 7.84 67.7328 7.52 67.9008 7.104V6.072H65.9208C64.8408 6.072 64.3008 6.448 64.3008 7.2C64.3008 7.568 64.4408 7.86 64.7208 8.076C65.0008 8.284 65.3928 8.388 65.8968 8.388ZM71.0669 2.688H71.9189V9H71.0669V2.688ZM71.4989 1.308C71.3229 1.308 71.1749 1.248 71.0549 1.128C70.9349 1.008 70.8749 0.864 70.8749 0.696C70.8749 0.536 70.9349 0.396 71.0549 0.275999C71.1749 0.155999 71.3229 0.0959995 71.4989 0.0959995C71.6749 0.0959995 71.8229 0.155999 71.9429 0.275999C72.0629 0.387999 72.1229 0.523999 72.1229 0.684C72.1229 0.86 72.0629 1.008 71.9429 1.128C71.8229 1.248 71.6749 1.308 71.4989 1.308ZM74.2896 0.0959995H75.1416V9H74.2896V0.0959995ZM79.7202 2.64C80.5442 2.64 81.1762 2.848 81.6162 3.264C82.0562 3.672 82.2762 4.28 82.2762 5.088V9H81.4602V8.016C81.2682 8.344 80.9842 8.6 80.6082 8.784C80.2402 8.968 79.8002 9.06 79.2882 9.06C78.5842 9.06 78.0242 8.892 77.6082 8.556C77.1922 8.22 76.9842 7.776 76.9842 7.224C76.9842 6.688 77.1762 6.256 77.5602 5.928C77.9522 5.6 78.5722 5.436 79.4202 5.436H81.4242V5.052C81.4242 4.508 81.2722 4.096 80.9682 3.816C80.6642 3.528 80.2202 3.384 79.6362 3.384C79.2362 3.384 78.8522 3.452 78.4842 3.588C78.1162 3.716 77.8002 3.896 77.5362 4.128L77.1522 3.492C77.4722 3.22 77.8562 3.012 78.3042 2.868C78.7522 2.716 79.2242 2.64 79.7202 2.64ZM79.4202 8.388C79.9002 8.388 80.3122 8.28 80.6562 8.064C81.0002 7.84 81.2562 7.52 81.4242 7.104V6.072H79.4442C78.3642 6.072 77.8242 6.448 77.8242 7.2C77.8242 7.568 77.9642 7.86 78.2442 8.076C78.5242 8.284 78.9162 8.388 79.4202 8.388ZM87.8423 2.64C88.4343 2.64 88.9703 2.776 89.4503 3.048C89.9303 3.312 90.3063 3.688 90.5783 4.176C90.8503 4.664 90.9863 5.22 90.9863 5.844C90.9863 6.468 90.8503 7.024 90.5783 7.512C90.3063 8 89.9303 8.38 89.4503 8.652C88.9703 8.924 88.4343 9.06 87.8423 9.06C87.3143 9.06 86.8383 8.948 86.4143 8.724C85.9983 8.5 85.6623 8.176 85.4063 7.752V9H84.5903V0.0959995H85.4423V3.888C85.7063 3.48 86.0423 3.172 86.4503 2.964C86.8663 2.748 87.3303 2.64 87.8423 2.64ZM87.7823 8.304C88.2223 8.304 88.6223 8.204 88.9823 8.004C89.3423 7.796 89.6223 7.504 89.8223 7.128C90.0303 6.752 90.1343 6.324 90.1343 5.844C90.1343 5.364 90.0303 4.936 89.8223 4.56C89.6223 4.184 89.3423 3.896 88.9823 3.696C88.6223 3.488 88.2223 3.384 87.7823 3.384C87.3343 3.384 86.9303 3.488 86.5703 3.696C86.2183 3.896 85.9383 4.184 85.7303 4.56C85.5303 4.936 85.4303 5.364 85.4303 5.844C85.4303 6.324 85.5303 6.752 85.7303 7.128C85.9383 7.504 86.2183 7.796 86.5703 8.004C86.9303 8.204 87.3343 8.304 87.7823 8.304ZM92.7232 0.0959995H93.5752V9H92.7232V0.0959995ZM101.442 6.108H96.1618C96.2098 6.764 96.4618 7.296 96.9178 7.704C97.3738 8.104 97.9498 8.304 98.6458 8.304C99.0378 8.304 99.3978 8.236 99.7258 8.1C100.054 7.956 100.338 7.748 100.578 7.476L101.058 8.028C100.778 8.364 100.426 8.62 100.002 8.796C99.5858 8.972 99.1258 9.06 98.6218 9.06C97.9738 9.06 97.3978 8.924 96.8938 8.652C96.3978 8.372 96.0098 7.988 95.7298 7.5C95.4498 7.012 95.3098 6.46 95.3098 5.844C95.3098 5.228 95.4418 4.676 95.7058 4.188C95.9778 3.7 96.3458 3.32 96.8098 3.048C97.2818 2.776 97.8098 2.64 98.3938 2.64C98.9778 2.64 99.5018 2.776 99.9658 3.048C100.43 3.32 100.794 3.7 101.058 4.188C101.322 4.668 101.454 5.22 101.454 5.844L101.442 6.108ZM98.3938 3.372C97.7858 3.372 97.2738 3.568 96.8578 3.96C96.4498 4.344 96.2178 4.848 96.1618 5.472H100.638C100.582 4.848 100.346 4.344 99.9298 3.96C99.5218 3.568 99.0098 3.372 98.3938 3.372Z" fill="#505050"/>
</svg>
